<?xml version="1.0" encoding="UTF-8" standalone="no"?>
<!-- Created with Inkscape (http://www.inkscape.org/) -->

<svg
   xmlns:dc="http://purl.org/dc/elements/1.1/"
   xmlns:cc="http://creativecommons.org/ns#"
   xmlns:rdf="http://www.w3.org/1999/02/22-rdf-syntax-ns#"
   xmlns:svg="http://www.w3.org/2000/svg"
   xmlns="http://www.w3.org/2000/svg"
   xmlns:sodipodi="http://sodipodi.sourceforge.net/DTD/sodipodi-0.dtd"
   xmlns:inkscape="http://www.inkscape.org/namespaces/inkscape"
   width="1052.3622"
   height="1488.189"
   id="svg7772"
   version="1.1"
   inkscape:version="0.48.2 r9819"
   sodipodi:docname="ComputationalScience.svg">
  <defs
     id="defs3">
    <marker
       inkscape:stockid="Arrow2Lend"
       orient="auto"
       refY="0.0"
       refX="0.0"
       id="Arrow2Lend"
       style="overflow:visible;">
      <path
         id="path3939"
         style="font-size:12.0;fill-rule:evenodd;stroke-width:0.62500000;stroke-linejoin:round;"
         d="M 8.7185878,4.0337352 L -2.2072895,0.016013256 L 8.7185884,-4.0017078 C 6.9730900,-1.6296469 6.9831476,1.6157441 8.7185878,4.0337352 z "
         transform="scale(1.1) rotate(180) translate(1,0)" />
    </marker>
    <marker
       inkscape:stockid="Arrow1Lend"
       orient="auto"
       refY="0.0"
       refX="0.0"
       id="Arrow1Lend"
       style="overflow:visible;">
      <path
         id="path3921"
         d="M 0.0,0.0 L 5.0,-5.0 L -12.5,0.0 L 5.0,5.0 L 0.0,0.0 z "
         style="fill-rule:evenodd;stroke:#000000;stroke-width:1.0pt;marker-start:none;"
         transform="scale(0.8) rotate(180) translate(12.5,0)" />
    </marker>
    <linearGradient
       x1="0"
       y1="0"
       x2="1"
       y2="0"
       gradientUnits="userSpaceOnUse"
       gradientTransform="matrix(225.94606,-172.93073,-172.93073,-225.94606,31.406738,413.53027)"
       spreadMethod="pad"
       id="linearGradient3026">
      <stop
         style="stop-opacity:1;stop-color:#676767"
         offset="0"
         id="stop3028" />
      <stop
         style="stop-opacity:1;stop-color:#282829"
         offset="1"
         id="stop3030" />
    </linearGradient>
    <clipPath
       clipPathUnits="userSpaceOnUse"
       id="clipPath3038">
      <path
         inkscape:connector-curvature="0"
         d="m 0,419.53 595.28,0 L 595.28,0 0,0 0,419.53 z"
         id="path3040" />
    </clipPath>
    <clipPath
       clipPathUnits="userSpaceOnUse"
       id="clipPath3076">
      <path
         inkscape:connector-curvature="0"
         d="m 0,419.53 595.28,0 L 595.28,0 0,0 0,419.53 z"
         id="path3078" />
    </clipPath>
    <clipPath
       clipPathUnits="userSpaceOnUse"
       id="clipPath3092">
      <path
         inkscape:connector-curvature="0"
         d="m 0,419.53 595.28,0 L 595.28,0 0,0 0,419.53 z"
         id="path3094" />
    </clipPath>
    <clipPath
       clipPathUnits="userSpaceOnUse"
       id="clipPath3110">
      <path
         inkscape:connector-curvature="0"
         d="m 0,419.53 595.28,0 L 595.28,0 0,0 0,419.53 z"
         id="path3112" />
    </clipPath>
    <clipPath
       clipPathUnits="userSpaceOnUse"
       id="clipPath4866">
      <path
         inkscape:connector-curvature="0"
         d="m 552.777,179.254 25.13,0 0,-32.599 -25.13,0 0,32.599 z"
         id="path4868" />
    </clipPath>
    <clipPath
       clipPathUnits="userSpaceOnUse"
       id="clipPath4912">
      <path
         inkscape:connector-curvature="0"
         d="m 245.202,105.935 25.131,0 0,-28.3432 -25.131,0 0,28.3432 z"
         id="path4914" />
    </clipPath>
    <clipPath
       clipPathUnits="userSpaceOnUse"
       id="clipPath4928">
      <path
         inkscape:connector-curvature="0"
         d="m 250.228,112.709 28.545,0 0,-26.9141 -28.545,0 0,26.9141 z"
         id="path4930" />
    </clipPath>
    <clipPath
       clipPathUnits="userSpaceOnUse"
       id="clipPath4972">
      <path
         inkscape:connector-curvature="0"
         d="m 409.954,380.599 34.951,0 0,-27.968 -34.951,0 0,27.968 z"
         id="path4974" />
    </clipPath>
    <clipPath
       clipPathUnits="userSpaceOnUse"
       id="clipPath5012">
      <path
         inkscape:connector-curvature="0"
         d="m 276.495,354.874 28.384,0 0,-37.429 -28.384,0 0,37.429 z"
         id="path5014" />
    </clipPath>
    <clipPath
       clipPathUnits="userSpaceOnUse"
       id="clipPath5036">
      <path
         inkscape:connector-curvature="0"
         d="m 347.729,55.0742 28.118,0 0,-38.5185 -28.118,0 0,38.5185 z"
         id="path5038" />
    </clipPath>
    <clipPath
       clipPathUnits="userSpaceOnUse"
       id="clipPath5064">
      <path
         inkscape:connector-curvature="0"
         d="m 480.863,79.8711 38.397,0 0,-28.4141 -38.397,0 0,28.4141 z"
         id="path5066" />
    </clipPath>
    <clipPath
       clipPathUnits="userSpaceOnUse"
       id="clipPath5128">
      <path
         inkscape:connector-curvature="0"
         d="m 209.267,263.5 35.319,0 0,-40.581 -35.319,0 0,40.581 z"
         id="path5130" />
    </clipPath>
    <clipPath
       clipPathUnits="userSpaceOnUse"
       id="clipPath5200">
      <path
         inkscape:connector-curvature="0"
         d="m 503.948,321.407 40.093,0 0,-33.563 -40.093,0 0,33.563 z"
         id="path5202" />
    </clipPath>
  </defs>
  <sodipodi:namedview
     inkscape:document-units="mm"
     id="base"
     pagecolor="#ffffff"
     bordercolor="#666666"
     borderopacity="1.0"
     inkscape:pageopacity="0.0"
     inkscape:pageshadow="2"
     inkscape:zoom="0.4683545"
     inkscape:cx="526.18109"
     inkscape:cy="744.09448"
     inkscape:current-layer="layer1"
     showgrid="true"
     units="mm"
     inkscape:window-width="1654"
     inkscape:window-height="915"
     inkscape:window-x="29"
     inkscape:window-y="0"
     inkscape:window-maximized="0"
     showguides="true"
     inkscape:guide-bbox="true">
    <inkscape:grid
       type="xygrid"
       id="grid31825"
       empspacing="5"
       visible="true"
       enabled="true"
       snapvisiblegridlinesonly="true"
       units="mm"
       spacingx="5mm"
       spacingy="5mm" />
  </sodipodi:namedview>
  <metadata
     id="metadata4">
    <rdf:RDF>
      <cc:Work
         rdf:about="">
        <dc:format>image/svg+xml</dc:format>
        <dc:type
           rdf:resource="http://purl.org/dc/dcmitype/StillImage" />
        <dc:title></dc:title>
      </cc:Work>
    </rdf:RDF>
  </metadata>
  <g
     inkscape:label="Layer 1"
     inkscape:groupmode="layer"
     id="layer1"
     transform="translate(0,435.82679)">
    <text
       xml:space="preserve"
       style="font-size:40px;font-style:normal;font-weight:normal;line-height:125%;letter-spacing:0px;word-spacing:0px;fill:#72040a;fill-opacity:1;stroke:none;font-family:Sans"
       x="17.716536"
       y="-187.7953"
       id="text7855"
       sodipodi:linespacing="125%"><tspan
         sodipodi:role="line"
         x="17.716536"
         y="-187.7953"
         style="font-size:40px;font-style:italic;font-variant:normal;font-weight:normal;font-stretch:normal;fill:#72040a;fill-opacity:1;font-family:Arial;-inkscape-font-specification:Arial Italic"
         id="tspan35295">Usare i computer per simulare il mondo, </tspan><tspan
         sodipodi:role="line"
         x="17.716536"
         y="-137.7953"
         style="font-size:40px;font-style:italic;font-variant:normal;font-weight:normal;font-stretch:normal;fill:#72040a;fill-opacity:1;font-family:Arial;-inkscape-font-specification:Arial Italic"
         id="tspan3264">domandandosi «cosa succederebbe se...»?</tspan></text>
    <rect
       style="fill:#000000;fill-opacity:1;stroke:none"
       id="rect31815"
       width="1045.2756"
       height="177.16539"
       x="0"
       y="-435.82681"
       ry="0" />
    <text
       xml:space="preserve"
       style="font-size:40px;font-style:normal;font-weight:normal;line-height:125%;letter-spacing:0px;word-spacing:0px;fill:#ffffff;fill-opacity:1;stroke:none;font-family:Sans"
       x="177.16536"
       y="-311.81107"
       id="text32200"
       sodipodi:linespacing="125%"><tspan
         sodipodi:role="line"
         id="tspan32202"
         x="177.16536"
         y="-311.81107"
         style="font-size:64px;font-style:normal;font-variant:normal;font-weight:normal;font-stretch:normal;fill:#ffffff;font-family:Arial;-inkscape-font-specification:Arial">Computational Science</tspan></text>
    <flowRoot
       xml:space="preserve"
       id="flowRoot35244"
       style="font-size:40px;font-style:normal;font-weight:normal;line-height:125%;letter-spacing:0px;word-spacing:0px;fill:#000000;fill-opacity:1;stroke:none;font-family:Sans"
       transform="translate(23.247785,-717.6307)"><flowRegion
         id="flowRegion35246"><rect
           id="rect35248"
           width="1027.5546"
           height="1275.5961"
           x="-5.5268207"
           y="637.1131" /></flowRegion><flowPara
         style="font-size:35px;font-style:normal;font-variant:normal;font-weight:normal;font-stretch:normal;font-family:Arial;-inkscape-font-specification:Arial"
         id="flowPara35643">Sfruttando l'incredibile potenza di calcolo dei supercomputer di nuova generazione, le scienze computazionali offrono la straordinaria possibilità di studiare problemi complessi e interamente nuovi di grande interesse scientifico, in una varietà di discipline: dalla fisica alla finanza, passando per la chimica, la biologia, la medicina, la farmacologia, la climatologia, la meteorologia, la scienza dei materiali e altre ancora.</flowPara><flowPara
         style="font-size:35px;font-style:normal;font-variant:normal;font-weight:normal;font-stretch:normal;font-family:Arial;-inkscape-font-specification:Arial"
         id="flowPara3282"></flowPara><flowPara
         style="font-size:35px;font-style:normal;font-variant:normal;font-weight:normal;font-stretch:normal;font-family:Arial;-inkscape-font-specification:Arial"
         id="flowPara3284">Grazie alle ricerche in questo settore si ha la possibilità di replicare sullo schermo del proprio computer le infinite sfaccettature del mondo, regalandoci un immenso laboratorio sperimentale sulla materia, quindi su noi stessi e su tutto ciò che ci circonda.</flowPara></flowRoot>    <g
       id="g31689"
       transform="matrix(1.9733467,0,0,1.9733467,-2716.3872,-479.6166)">
      <g
         id="g10645"
         transform="matrix(1.25,0,0,-1.25,1448.6878,67.49145)">
        <path
           inkscape:connector-curvature="0"
           d="m 0,0 c 0,-12.077 -9.763,-21.872 -21.808,-21.872 -12.044,0 -21.81,9.795 -21.81,21.872 0,12.082 9.766,21.876 21.81,21.876 C -9.763,21.876 0,12.082 0,0"
           style="fill:#e30613;fill-opacity:1;fill-rule:nonzero;stroke:none"
           id="path10647" />
      </g>
      <g
         transform="matrix(1.25,0,0,-1.25,1067.6233,491.61745)"
         id="g10653">
        <g
           id="g10655" />
        <g
           id="g10657">
          <g
             style="opacity:0.5"
             clip-path="url(#clipPath5012)"
             id="g10659">
            <g
               transform="translate(290.8062,354.8735)"
               id="g10661">
              <path
                 inkscape:connector-curvature="0"
                 d="m 0,0 -7.583,-2.219 0,-25.299 -6.729,-2.517 7.334,-7.393 c 11.69,0.404 21.051,10.03 21.051,21.855 0,0.481 -0.022,0.956 -0.055,1.427 L 0,0 z"
                 style="fill:#000101;fill-opacity:1;fill-rule:nonzero;stroke:none"
                 id="path10663" />
            </g>
          </g>
        </g>
      </g>
      <g
         id="g10665"
         transform="matrix(1.25,0,0,-1.25,1417.5721,86.97445)">
        <path
           inkscape:connector-curvature="0"
           d="m 0,0 -0.125,0.006 c -0.454,0.039 -1.998,0.203 -2.892,0.74 -0.727,0.439 -0.96,1.383 -0.524,2.113 0.435,0.729 1.377,0.965 2.105,0.53 C -1.223,3.273 -0.479,3.134 0.057,3.083 1.41,3.139 1.473,5.13 1.477,5.36 l 0,21.133 c 0,1.874 0.551,3.358 1.639,4.413 1.479,1.433 3.373,1.469 3.711,1.461 1.716,-0.007 3.322,-0.715 3.5,-0.794 0.771,-0.353 1.111,-1.266 0.761,-2.041 -0.352,-0.772 -1.26,-1.115 -2.033,-0.766 -0.323,0.146 -1.353,0.521 -2.247,0.521 l -0.051,0 c 0.01,0 -0.908,-10e-4 -1.522,-0.616 C 4.777,28.22 4.548,27.486 4.548,26.493 l 0,-21.142 C 4.548,3.198 3.337,0 0,0"
           style="fill:#ffffff;fill-opacity:1;fill-rule:nonzero;stroke:none"
           id="path10667" />
      </g>
    </g>
  </g>
</svg>
